<svg width="24" height="21" viewBox="0 0 24 21" fill="none" xmlns="http://www.w3.org/2000/svg">
<path d="M17.955 1.39794V3.68772L19.961 5.1654V1.39789L17.955 1.39794Z" fill="black"/>
<path d="M8.31189 14.5227H11.1464V17.3572H8.31189V14.5227Z" fill="black"/>
<path d="M8.31189 10.8624H11.1464V13.6969H8.31189V10.8624Z" fill="black"/>
<path d="M11.9719 14.5227H14.8064V17.3572H11.9719V14.5227Z" fill="black"/>
<path d="M20.0062 12.0636C20.5995 12.0636 21.0824 11.5807 21.0824 10.9873C21.0824 10.394 20.5995 9.91107 20.0062 9.91107C19.4129 9.91107 18.9299 10.394 18.9299 10.9873C18.9299 11.5807 19.4129 12.0636 20.0062 12.0636Z" fill="black"/>
<path d="M20.0062 15.0418C20.5995 15.0418 21.0824 14.5588 21.0824 13.9655C21.0824 13.3722 20.5995 12.8893 20.0062 12.8893C19.4129 12.8893 18.9299 13.3722 18.9299 13.9655C18.9299 14.5588 19.4129 15.0418 20.0062 15.0418Z" fill="black"/>
<path d="M11.9719 10.8624H14.8064V13.6969H11.9719V10.8624Z" fill="black"/>
<path d="M3.10812 12.8891C2.51478 12.8891 2.03186 13.372 2.03186 13.9654C2.03186 14.5587 2.51478 15.0416 3.10812 15.0416C3.70146 15.0416 4.18438 14.5587 4.18438 13.9654C4.18438 13.372 3.70146 12.8891 3.10812 12.8891Z" fill="black"/>
<path d="M20.0062 18.0207C20.5995 18.0207 21.0824 17.5378 21.0824 16.9445C21.0824 16.3511 20.5995 15.8682 20.0062 15.8682C19.4129 15.8682 18.9299 16.3511 18.9299 16.9445C18.9299 17.5378 19.4129 18.0207 20.0062 18.0207Z" fill="black"/>
<path d="M0 8.51507V10.5737H1.25478C1.44465 9.72341 2.20205 9.08468 3.10908 9.08468C4.15749 9.08468 5.01085 9.93807 5.01085 10.9865C5.01085 11.5932 4.72088 12.1277 4.27822 12.4755C4.7209 12.8242 5.01085 13.3588 5.01085 13.9645C5.01085 14.5702 4.72088 15.1057 4.27822 15.4535C4.7209 15.8023 5.01085 16.3368 5.01085 16.9425C5.01085 17.5493 4.72088 18.0838 4.27719 18.4315C4.71987 18.7803 5.01085 19.3148 5.01085 19.9205C5.01085 20.3199 4.88599 20.6903 4.67446 20.9968H18.4419C18.2304 20.6903 18.1055 20.3199 18.1055 19.9205C18.1055 19.3138 18.3955 18.7793 18.8392 18.4315C18.3965 18.0827 18.1055 17.5482 18.1055 16.9425C18.1055 16.3368 18.3955 15.8012 18.8392 15.4535C18.3965 15.1047 18.1055 14.5702 18.1055 13.9645C18.1055 13.3588 18.3955 12.8232 18.8392 12.4755C18.3965 12.1267 18.1055 11.5922 18.1055 10.9865C18.1055 9.93804 18.9589 9.08468 20.0073 9.08468C20.9133 9.08468 21.6717 9.72343 21.8606 10.5737H23.1143V8.51507L11.5592 0L0 8.51507ZM15.6322 17.7701C15.6322 17.9981 15.4475 18.1828 15.2194 18.1828H7.89917C7.67112 18.1828 7.48641 17.9981 7.48641 17.7701V10.4498C7.48641 10.2218 7.67112 10.037 7.89917 10.037H15.2194C15.4475 10.037 15.6322 10.2218 15.6322 10.4498V17.7701ZM18.6423 7.46554C18.826 7.60072 18.8652 7.85973 18.73 8.04237C18.6495 8.15175 18.5237 8.21057 18.3978 8.21057C18.3132 8.21057 18.2265 8.18477 18.1532 8.13008L11.5584 3.27078L4.9635 8.13008C4.77982 8.26526 4.52184 8.22605 4.38667 8.04237C4.25149 7.85869 4.2907 7.60071 4.47438 7.46554L11.3139 2.42582C11.4593 2.3185 11.6585 2.3185 11.804 2.42582L18.6435 7.46554H18.6423Z" fill="black"/>
<path d="M3.10812 15.8673C2.51478 15.8673 2.03186 16.3502 2.03186 16.9436C2.03186 17.5369 2.51478 18.0198 3.10812 18.0198C3.70146 18.0198 4.18438 17.5369 4.18438 16.9436C4.18438 16.3502 3.70146 15.8673 3.10812 15.8673Z" fill="black"/>
<path d="M3.10812 18.8463C2.51478 18.8463 2.03186 19.3292 2.03186 19.9225C2.03186 20.5159 2.51478 20.9988 3.10812 20.9988C3.70146 20.9988 4.18438 20.5159 4.18438 19.9225C4.18438 19.3292 3.70146 18.8463 3.10812 18.8463Z" fill="black"/>
<path d="M3.10812 9.91013C2.51478 9.91013 2.03186 10.393 2.03186 10.9864C2.03186 11.5797 2.51478 12.0626 3.10812 12.0626C3.70146 12.0626 4.18438 11.5797 4.18438 10.9864C4.18438 10.393 3.70146 9.91013 3.10812 9.91013Z" fill="black"/>
<path d="M20.0062 21C20.5995 21 21.0824 20.5171 21.0824 19.9237C21.0824 19.3304 20.5995 18.8475 20.0062 18.8475C19.4129 18.8475 18.9299 19.3304 18.9299 19.9237C18.9299 20.5171 19.4129 21 20.0062 21Z" fill="black"/>
</svg>
