<svg width="84" height="90" viewBox="0 0 84 90" fill="none" xmlns="http://www.w3.org/2000/svg">
<path d="M9.58154 49.0014H21.9563" stroke="black" stroke-width="4" stroke-linecap="round" stroke-linejoin="round"/>
<path d="M17.0947 41.4389H30.8249" stroke="black" stroke-width="4" stroke-linecap="round" stroke-linejoin="round"/>
<path d="M9.58154 56.5639H18.5188" stroke="black" stroke-width="4" stroke-linecap="round" stroke-linejoin="round"/>
<path d="M8.87451 47.3747V72.0078" stroke="black" stroke-width="4"/>
<path d="M31.5615 78.8828L31.589 49.3203H52.2132L52.1857 78.8828" stroke="black" stroke-width="4" stroke-linejoin="round"/>
<path d="M41.8735 78.8828L41.901 49.3203" stroke="black" stroke-width="4"/>
<path d="M30.8672 56.8828H52.8664" stroke="black" stroke-width="4"/>
<path d="M30.8867 64.4453H52.8859" stroke="black" stroke-width="4"/>
<path d="M30.8867 72.0078H52.8859" stroke="black" stroke-width="4"/>
<path d="M27.4561 34.1953H36.3936" stroke="black" stroke-width="4" stroke-linecap="round" stroke-linejoin="round"/>
<path d="M9.58154 64.4453H18.5188" stroke="black" stroke-width="4" stroke-linecap="round" stroke-linejoin="round"/>
<path d="M81.0469 46.7291L80.537 47.5449C80.339 47.8618 80.0783 48.1353 79.7711 48.3482C79.4639 48.561 79.1165 48.7088 78.7502 48.7829C78.3838 48.857 78.0063 48.8556 77.6405 48.7789C77.2747 48.7021 76.9284 48.5518 76.6227 48.3368L43.4563 24.9967C42.993 24.6707 42.4403 24.4958 41.8738 24.4958C41.3073 24.4958 40.7546 24.6707 40.2913 24.9967L7.12496 48.3368C6.81928 48.5518 6.47297 48.7021 6.10718 48.7789C5.74138 48.8556 5.36379 48.857 4.99745 48.7829C4.63112 48.7088 4.28373 48.561 3.97651 48.3482C3.66929 48.1353 3.40868 47.8618 3.21061 47.5449L2.70076 46.7291C2.32648 46.1303 2.1969 45.4104 2.33887 44.7187C2.48083 44.0269 2.88346 43.4163 3.46333 43.0133L38.7354 18.5017C39.6567 17.8614 40.7519 17.5184 41.8738 17.5184C42.9958 17.5184 44.0909 17.8614 45.0123 18.5017L80.2843 43.0133C80.8642 43.4163 81.2668 44.0269 81.4088 44.7187C81.5507 45.4104 81.4212 46.1303 81.0469 46.7291Z" stroke="black" stroke-width="4" stroke-linecap="round" stroke-linejoin="round"/>
<path d="M59.748 29.3832V19.7582" stroke="black" stroke-width="4"/>
<path d="M67.998 19.7582V34.8832" stroke="black" stroke-width="4"/>
<path d="M58.3735 19.7582H69.373" stroke="black" stroke-width="4" stroke-linecap="round" stroke-linejoin="round"/>
<path fill-rule="evenodd" clip-rule="evenodd" d="M67.9978 12.1957C67.9978 12.925 67.7081 13.6243 67.1924 14.14C66.6767 14.6557 65.9773 14.9456 65.248 14.9457C64.8869 14.9457 64.5293 14.8744 64.1957 14.7362C63.862 14.598 63.5589 14.3957 63.3035 14.1404C63.0481 13.885 62.8456 13.5817 62.7074 13.2481C62.5692 12.9144 62.498 12.5568 62.498 12.1957C62.498 11.8345 62.5692 11.4769 62.7074 11.1433C62.8456 10.8096 63.0481 10.5065 63.3035 10.2512C63.5589 9.99581 63.862 9.79318 64.1957 9.65498C64.5293 9.51679 64.8869 9.44567 65.248 9.44568C65.9773 9.44573 66.6767 9.73546 67.1924 10.2512C67.7081 10.7669 67.9978 11.4664 67.9978 12.1957Z" stroke="black" stroke-width="4" stroke-linecap="round" stroke-linejoin="round"/>
<path fill-rule="evenodd" clip-rule="evenodd" d="M59.7483 6.125C59.7483 7.21899 59.3137 8.26826 58.5402 9.04184C57.7666 9.81542 56.7175 10.25 55.6235 10.25C55.0818 10.25 54.5454 10.1434 54.045 9.93613C53.5445 9.72883 53.0898 9.42488 52.7067 9.04184C52.3237 8.6588 52.0198 8.20407 51.8125 7.7036C51.6052 7.20312 51.4985 6.66671 51.4985 6.125C51.4985 5.58329 51.6052 5.04688 51.8125 4.5464C52.0198 4.04593 52.3237 3.5912 52.7067 3.20816C53.0898 2.82512 53.5445 2.52133 54.045 2.31404C54.5454 2.10675 55.0818 1.99998 55.6235 2C56.7175 2.00004 57.7666 2.43474 58.5402 3.20833C59.3137 3.98191 59.7483 5.03101 59.7483 6.125Z" stroke="black" stroke-width="4" stroke-linecap="round" stroke-linejoin="round"/>
<path d="M38.6273 80.7077C37.4112 79.4033 35.8948 78.7667 33.9665 78.7667C32.3377 78.7692 30.7661 79.3666 29.5495 80.4452C28.3202 78.5716 26.2245 77.4415 23.9769 77.4404C23.3191 77.4428 22.6652 77.5422 22.0365 77.7358C20.1836 74.2917 16.5794 72.1404 12.6554 72.1357C6.77042 72.1357 2 76.8859 2 82.7453C2 84.2103 2.29838 85.6046 2.83765 86.874C2.87065 86.9538 2.9064 87.0364 2.94215 87.1134C31.6458 86.7911 55.804 87.5768 81.596 87.0805C81.629 86.8605 81.6593 86.6392 81.6813 86.4165C81.7253 85.9707 81.75 85.5185 81.75 85.0606C81.75 77.7365 75.846 71.799 68.5629 71.799C63.707 71.799 59.2467 74.4935 56.9541 78.7986C56.1758 78.5566 55.3665 78.4297 54.5522 78.4297C51.7706 78.431 49.1776 79.8435 47.6563 82.1854C46.1504 80.8373 44.2056 80.0873 42.1896 80.0873C39.9137 80.0873 37.8534 81.0152 36.3618 82.515C35.616 83.265 35.0126 84.1579 34.5955 85.1496C34.3865 85.6454 34.225 86.166 34.1153 86.7055C34.0878 86.8403 34.0631 86.9751 34.0438 87.1137" stroke="black" stroke-width="4" stroke-linejoin="round"/>
<path d="M74.873 47.3747V73.3828" stroke="black" stroke-width="4"/>
<path fill-rule="evenodd" clip-rule="evenodd" d="M70.7686 6.00784C70.7686 6.76739 70.1528 7.38284 69.3936 7.38284C68.6343 7.38284 68.0186 6.76712 68.0186 6.00784C68.0186 5.24857 68.6343 4.63284 69.3936 4.63284C70.1528 4.63284 70.7686 5.24857 70.7686 6.00784Z" fill="black"/>
<path d="M56.3113 34.1953H47.3936" stroke="black" stroke-width="4" stroke-linecap="round" stroke-linejoin="round"/>
<path d="M74.1863 49.0014H61.8115" stroke="black" stroke-width="4" stroke-linecap="round" stroke-linejoin="round"/>
<path d="M66.6731 41.4389H52.9429" stroke="black" stroke-width="4" stroke-linecap="round" stroke-linejoin="round"/>
<path d="M74.1863 56.5639H65.249" stroke="black" stroke-width="4" stroke-linecap="round" stroke-linejoin="round"/>
<path d="M74.1863 64.4453H65.249" stroke="black" stroke-width="4" stroke-linecap="round" stroke-linejoin="round"/>
<path fill-rule="evenodd" clip-rule="evenodd" d="M44.6237 40.3832C44.6237 41.1125 44.3341 41.8118 43.8184 42.3275C43.3027 42.8432 42.6033 43.1331 41.874 43.1332C41.5129 43.1332 41.1553 43.0619 40.8216 42.9237C40.488 42.7855 40.1848 42.5832 39.9295 42.3279C39.6741 42.0725 39.4716 41.7692 39.3334 41.4356C39.1952 41.1019 39.124 40.7443 39.124 40.3832C39.124 40.022 39.1952 39.6644 39.3334 39.3308C39.4716 38.9971 39.6741 38.6939 39.9295 38.4385C40.1848 38.1831 40.488 37.9805 40.8216 37.8423C41.1553 37.7041 41.5129 37.6332 41.874 37.6332C42.6033 37.6332 43.3027 37.9231 43.8184 38.4388C44.3341 38.9546 44.6237 39.6539 44.6237 40.3832Z" stroke="black" stroke-width="4" stroke-linecap="round" stroke-linejoin="round"/>
</svg>
