<svg width="35" height="23" viewBox="0 0 35 23" fill="none" xmlns="http://www.w3.org/2000/svg">
<path fill-rule="evenodd" clip-rule="evenodd" d="M17.6061 23C16.4429 18.3601 13.5412 6.26793 13.5412 6.26793C13.472 5.98495 13.2181 5.78066 12.9212 5.77461C12.6242 5.76857 12.3596 5.95923 12.278 6.24069L10.1809 13.4622L7.63608 7.45441C7.54069 7.22893 7.32528 7.07609 7.07756 7.06097C6.82984 7.04432 6.59442 7.1669 6.47133 7.37875L2.76947 13.6193L0 0H35L33.5214 10.6581L31.1458 3.64696C31.052 3.37154 30.7842 3.19297 30.4904 3.20962C30.1965 3.22476 29.9488 3.43359 29.8888 3.71808L27.7409 13.7524L24.6129 5.54892C24.5145 5.29167 24.2621 5.12519 23.9836 5.13278C23.7051 5.14035 23.4636 5.32043 23.3789 5.58224C23.3789 5.58224 19.3172 18.2273 17.6093 23L17.6061 23Z" fill="#D9D9D9"/>
</svg>
