<svg width="392" height="40" viewBox="0 0 392 40" fill="none" xmlns="http://www.w3.org/2000/svg">
<rect width="392" height="18" rx="9" fill="#D9D9D9"/>
<path fill-rule="evenodd" clip-rule="evenodd" d="M52.6061 40C51.4429 35.3601 48.5412 23.2679 48.5412 23.2679C48.472 22.9849 48.2181 22.7807 47.9212 22.7746C47.6242 22.7686 47.3596 22.9592 47.278 23.2407L45.1809 30.4622L42.6361 24.4544C42.5407 24.2289 42.3253 24.0761 42.0776 24.061C41.8298 24.0443 41.5944 24.1669 41.4713 24.3788L37.7695 30.6193L35 17H70L68.5214 27.6581L66.1458 20.647C66.052 20.3715 65.7842 20.193 65.4904 20.2096C65.1965 20.2248 64.9488 20.4336 64.8888 20.7181L62.7409 30.7524L59.6129 22.5489C59.5145 22.2917 59.2621 22.1252 58.9836 22.1328C58.7051 22.1403 58.4636 22.3204 58.3789 22.5822C58.3789 22.5822 54.3172 35.2273 52.6093 40L52.6061 40Z" fill="#D9D9D9"/>
<path fill-rule="evenodd" clip-rule="evenodd" d="M213.606 36C212.443 31.3601 209.541 19.2679 209.541 19.2679C209.472 18.9849 209.218 18.7807 208.921 18.7746C208.624 18.7686 208.36 18.9592 208.278 19.2407L206.181 26.4622L203.636 20.4544C203.541 20.2289 203.325 20.0761 203.078 20.061C202.83 20.0443 202.594 20.1669 202.471 20.3788L198.769 26.6193L196 13H231L229.521 23.6581L227.146 16.647C227.052 16.3715 226.784 16.193 226.49 16.2096C226.196 16.2248 225.949 16.4336 225.889 16.7181L223.741 26.7524L220.613 18.5489C220.514 18.2917 220.262 18.1252 219.984 18.1328C219.705 18.1403 219.464 18.3204 219.379 18.5822C219.379 18.5822 215.317 31.2273 213.609 36L213.606 36Z" fill="#D9D9D9"/>
<path fill-rule="evenodd" clip-rule="evenodd" d="M316.606 40C315.443 35.3601 312.541 23.2679 312.541 23.2679C312.472 22.9849 312.218 22.7807 311.921 22.7746C311.624 22.7686 311.36 22.9592 311.278 23.2407L309.181 30.4622L306.636 24.4544C306.541 24.2289 306.325 24.0761 306.078 24.061C305.83 24.0443 305.594 24.1669 305.471 24.3788L301.769 30.6193L299 17H334L332.521 27.6581L330.146 20.647C330.052 20.3715 329.784 20.193 329.49 20.2096C329.196 20.2248 328.949 20.4336 328.889 20.7181L326.741 30.7524L323.613 22.5489C323.514 22.2917 323.262 22.1252 322.984 22.1328C322.705 22.1403 322.464 22.3204 322.379 22.5822C322.379 22.5822 318.317 35.2273 316.609 40L316.606 40Z" fill="#D9D9D9"/>
</svg>
