<svg width="152" height="89" viewBox="0 0 152 89" fill="none" xmlns="http://www.w3.org/2000/svg">
<path fill-rule="evenodd" clip-rule="evenodd" d="M47.6788 5.26542C47.0017 4.92566 46.8024 4.33235 47.0844 3.48211C48.2732 1.33199 50.1408 0.255244 52.6838 0.255244C55.1744 0.255244 57.2665 1.58554 58.9636 4.24614C60.0949 6.05819 61.5657 6.96253 63.3758 6.96253C63.7152 5.43446 64.5072 4.04668 65.7516 2.80259C67.5601 0.934762 69.7671 0 72.3692 0C74.9155 0 77.4028 0.906025 79.8377 2.71638C82.4398 4.69747 83.7417 7.04873 83.7417 9.76511C83.7417 11.2374 83.3162 12.4257 82.4685 13.3317C80.9978 15.1438 78.8482 15.5968 76.0199 14.6908C75.3411 14.4068 74.8024 14.1245 74.4073 13.8422C73.7859 13.3317 73.7014 12.7384 74.154 12.0572C74.6639 11.4352 75.2566 11.3507 75.9371 11.8037L76.7848 12.2279C78.5949 12.7942 79.8411 12.6252 80.5199 11.7192C80.9725 11.2661 81.197 10.6154 81.197 9.7668C81.197 7.8415 80.2075 6.14271 78.2268 4.67211C76.4167 3.25729 74.463 2.54904 72.3708 2.54904C70.505 2.54904 68.8907 3.22856 67.5348 4.5859C66.4034 5.83169 65.8378 7.02 65.8378 8.15253V12.1434C67.6479 14.635 68.9498 16.7564 69.7417 18.5126C70.9862 20.6628 72.0618 21.7395 72.9669 21.7395C73.2489 21.7395 73.5022 21.655 73.7302 21.486C74.2958 21.2595 74.9172 20.749 75.596 19.9579C75.8797 19.5623 76.2174 18.8524 76.6142 17.8348C76.8979 17.042 77.4332 16.7868 78.2268 17.0691C83.149 18.5972 86.9382 20.0982 89.596 21.5705C92.1424 23.0985 94.1788 24.6841 95.7053 26.3271C97.9697 28.8744 99.4674 31.082 100.202 32.9499C100.94 35.0442 101.306 37.5916 101.306 40.5919V41.4405L101.218 41.8647V41.9493L101.134 42.2028C100.965 43.1088 100.654 44.0706 100.2 45.0899L100.116 45.2606L147.887 72.4346L148.311 72.0103C148.539 71.7264 148.823 71.5861 149.161 71.5861C149.556 71.5861 149.868 71.6993 150.096 71.9258C150.376 72.1523 150.52 72.4363 150.52 72.7744C150.52 73.1699 150.405 73.4826 150.18 73.7091V73.7936L151.281 74.3886C152.018 74.7859 152.188 75.3792 151.793 76.172C151.396 76.9089 150.802 77.0509 150.008 76.5962L148.397 75.6632L147.803 76.3427C147.182 76.9647 146.585 76.9935 146.02 76.4272C145.736 76.2007 145.596 75.9167 145.596 75.5787C145.596 75.1831 145.707 74.8704 145.935 74.6439L146.104 74.3886L98.6721 47.3837C97.8802 48.0632 96.9751 48.403 95.9586 48.403C94.4304 48.403 93.1015 47.8655 91.9701 46.7887C90.7274 45.6579 90.1043 44.4121 90.1043 43.053V42.8012L87.3046 41.2731C86.5127 40.8759 86.3421 40.3096 86.7947 39.5743C87.2472 38.839 87.8146 38.6683 88.4917 39.0655L91.038 40.4246C91.4906 39.9715 91.857 39.6588 92.1407 39.4898C92.7064 39.15 93.3007 38.9523 93.9221 38.8948C93.1302 35.4972 91.9718 33.1206 90.4437 31.7616C88.6335 30.1185 85.7765 28.7325 81.8742 27.6016L76.3576 27.0911L76.5281 28.7054C76.5281 31.1395 74.5204 33.1493 70.5033 34.7349C68.5226 35.5834 66.9691 36.8579 65.8361 38.5567C67.0248 39.3495 68.2119 40.4533 69.399 41.8681C72.9078 43.2272 76.6396 45.1795 80.601 47.7268C83.8245 49.7654 88.4917 52.9923 94.6009 57.4091L103.596 63.8629L106.819 65.5617H106.906C108.093 66.1837 109.477 66.7787 111.063 67.345C113.27 68.1377 115.644 69.3261 118.19 70.9116C120.51 72.3839 122.152 73.8274 123.113 75.2423L130.409 77.7896C134.764 79.3752 137.649 80.5922 139.065 81.4408C140.083 82.0645 140.591 82.7136 140.591 83.3931C140.591 85.1494 139.546 86.5929 137.452 87.7254C135.868 88.5182 134.284 88.9138 132.702 88.9138C129.024 88.9138 124.075 87.3857 117.853 84.3295L108.432 79.7437L107.755 79.9989C105.946 80.7917 103.626 81.1314 100.796 81.0182C88.3515 79.8856 76.8979 77.6764 66.4304 74.3937C59.8129 72.2994 55.2301 70.4873 52.6838 68.9593C50.8196 67.771 49.8841 66.5809 49.8841 65.3926C49.8841 64.0894 50.7031 63.4386 52.3444 63.4386C52.7986 63.4386 58.7373 64.7706 70.1639 67.4295L80.9421 69.5526L80.346 68.704L80.1771 68.5333C78.8752 67.061 76.7544 65.5904 73.8112 64.1181C70.5303 62.5326 67.7881 60.4653 65.5811 57.9196C64.5612 56.9003 63.7422 55.8253 63.1208 54.6928L60.4883 56.5606C58.9045 57.3534 56.9812 57.7489 54.7202 57.7489C53.8708 57.7489 52.9657 57.6356 52.0033 57.4091C51.8344 57.9754 51.3819 58.7107 50.6456 59.6167C49.3438 60.92 48.0148 61.5708 46.6589 61.5708C43.8306 61.5708 42.0491 60.325 41.3129 57.8351L6.18546 70.2304V70.3166C6.41173 71.1094 6.12805 71.6469 5.3361 71.9292C4.54585 72.1557 4.0072 71.8734 3.7252 71.0806L1.68878 71.7602C0.896841 72.0424 0.359873 71.7889 0.0761926 70.9961C-0.151765 70.1476 0.131916 69.6084 0.925546 69.3819L2.96197 68.7023L2.70699 67.9383C2.425 67.1455 2.67829 66.608 3.47023 66.324C4.26386 66.0417 4.79914 66.2953 5.08282 67.0881L5.3361 67.8521L40.8907 55.2827L40.5513 52.9061V52.8199L40.2136 51.1211C39.9857 50.3858 39.702 48.092 39.3643 44.2431C39.0806 41.2985 38.9404 39.3174 38.9404 38.2981C38.9404 33.9387 41.5425 28.391 46.745 21.655C52.4592 14.4068 57.5789 10.8976 62.1043 11.1242H63.2931V9.50988C60.463 9.4524 58.2848 8.15084 56.76 5.60349C55.6827 3.73566 54.3267 2.8009 52.6854 2.8009C51.159 2.8009 50.0546 3.42464 49.3758 4.66873C49.0347 5.40741 48.4708 5.60687 47.6788 5.26542ZM61.8493 13.6749C58.0602 13.6749 53.7037 16.873 48.7831 23.271C43.9167 29.4999 41.4851 34.5084 41.4851 38.3015C41.4851 39.4915 41.627 41.4151 41.9106 44.0774C42.1926 47.644 42.4459 49.7671 42.6722 50.4466L42.7583 50.8709L45.2186 49.8516L45.048 45.8607C45.048 45.1812 45.3317 42.0101 45.8974 36.3491C46.1811 34.0283 48.0739 31.5942 51.5811 29.0452C52.5436 28.3099 54.1545 27.1773 56.4189 25.6493L59.4735 23.6952C60.1523 23.1864 60.7467 23.2997 61.255 24.035C61.4272 24.3173 61.4829 24.6587 61.4272 25.0543C61.3141 25.394 61.1148 25.6493 60.8311 25.8183L58.2848 27.5154C58.2848 28.6479 58.484 29.5252 58.8808 30.149C59.1071 30.5445 59.5579 30.8268 60.2384 30.9975C61.0321 31.2798 61.3141 31.8173 61.0878 32.6118C61.0321 32.9516 60.8328 33.2068 60.4917 33.3758C60.2097 33.5466 59.8973 33.5736 59.5579 33.4604C58.2561 33.1206 57.2953 32.4698 56.6722 31.5063C56.3345 30.9401 56.0525 30.149 55.8245 29.1297L53.0248 31.082C50.0834 33.2322 48.5569 35.0729 48.4437 36.6027C47.8781 42.0946 47.5944 45.1795 47.5944 45.859L47.7649 50.2742C48.7257 50.5565 49.6038 51.067 50.3957 51.8023L50.4819 51.8868L54.8924 50.3587C55.7418 50.0747 56.3074 50.33 56.5894 51.1227C56.8174 51.9155 56.5337 52.4547 55.7418 52.737L52.0944 54.0961L52.2633 54.8601H52.3477C53.1971 55.0866 53.989 55.1999 54.7252 55.1999C56.7043 55.1999 58.2307 54.8871 59.3063 54.2651C60.0426 53.8696 60.9172 53.2171 61.9371 52.3128C61.5977 51.2377 61.3428 50.2455 61.1739 49.3411C61.1182 49.0014 61.2026 48.6903 61.4289 48.4081C61.6552 48.1241 61.9371 47.9534 62.2766 47.8976C63.1259 47.7843 63.6071 48.1511 63.7186 49.0014C63.7743 50.0206 64.0867 51.0687 64.6524 52.1437C65.2755 53.5028 66.2076 54.8618 67.452 56.2208C69.6016 58.5991 72.0906 60.467 74.9189 61.826C77.9161 63.2983 80.1231 64.7976 81.5381 66.3274L84.5083 65.1374L83.7451 64.4579C82.7252 63.6093 81.6783 62.5055 80.606 61.1465L70.2534 47.1335C69.5172 46.0585 68.6425 44.953 67.6226 43.8222V43.7376C65.8124 41.6433 64.5392 40.5091 63.803 40.34H63.7186C62.5298 40.34 60.2671 40.9063 56.9288 42.0388L50.3096 44.5017C49.5751 44.7857 49.0364 44.5304 48.6987 43.7376C48.4725 42.8891 48.7544 42.3499 49.5481 42.1234L56.0812 39.6605C59.5866 38.4722 62.0216 37.8502 63.3775 37.7944C64.7925 35.247 66.856 33.435 69.5729 32.3582C72.5127 31.2274 73.9834 30.0087 73.9834 28.7071C73.9834 28.1966 73.8416 27.3481 73.5596 26.1598L73.4735 25.82C73.4735 25.4802 73.6153 25.1692 73.899 24.8852C74.1253 24.603 74.4073 24.461 74.7467 24.461C76.5011 24.461 79.0171 24.6875 82.2997 25.1405H82.4702C86.7693 26.3305 89.9928 27.9143 92.1441 29.8954C94.2362 31.7075 95.707 34.7923 96.5546 39.1517L98.6772 40.0865C98.6772 37.5392 98.3952 35.4736 97.8278 33.888C97.1507 32.1892 95.7931 30.2369 93.7567 28.0293C92.3416 26.4437 90.5315 25.0577 88.3245 23.8677C86.6275 22.8484 83.3736 21.491 78.5679 19.7922C78.2285 20.585 77.8891 21.1783 77.5497 21.5755C76.5298 22.7081 75.6247 23.4434 74.8328 23.7848C74.2688 24.1246 73.6457 24.2936 72.9686 24.2936C71.0436 24.2936 69.2335 22.7656 67.5365 19.7077C66.6888 17.8974 65.4156 15.8858 63.7186 13.68H61.8493V13.6749ZM137.962 83.8191C136.885 83.0821 134.087 81.8938 129.56 80.2524L123.876 78.2139C123.648 79.5729 122.518 80.5077 120.482 81.0165L117.767 81.3562H117.596L119.038 82.1203C124.81 84.9516 129.364 86.3664 132.702 86.3664C133.832 86.3664 135.02 86.0554 136.265 85.4333C137.283 84.9786 137.849 84.4411 137.962 83.8191ZM92.649 43.0564C92.649 43.736 92.9884 44.3597 93.6689 44.9243C94.2886 45.5463 95.0535 45.859 95.9586 45.859C96.4111 45.859 96.8619 45.575 97.3162 45.0105C97.5424 44.784 97.74 44.4442 97.9106 43.9912L98.4205 42.7184L95.5347 41.4455H95.3659L93.581 41.6163C93.2433 41.8428 92.9596 42.1538 92.7334 42.5493L92.649 43.0564ZM72.6258 46.1126L82.3824 59.3598C92.6202 65.134 98.5607 68.3051 100.202 68.8714L101.475 69.4664L104.106 67.0035L102.324 66.0688C101.306 65.5025 98.2213 63.2949 93.0745 59.446C88.0965 55.7661 83.4867 52.568 79.245 49.8499C76.5855 48.2644 74.3786 47.0203 72.6258 46.1126ZM100.541 72.5242H101.475L100.967 72.0999H100.881C100.315 71.7044 99.8338 71.4491 99.4387 71.3359C97.7417 70.6564 94.942 69.2415 91.038 67.0897C92.8482 68.6178 94.0944 69.7791 94.7715 70.5718C95.1666 71.1381 95.4233 71.6199 95.5347 72.0154C97.5154 72.3535 99.1837 72.5242 100.541 72.5242ZM94.7715 74.4765L94.5182 74.7318C93.8951 75.2406 93.1319 75.6091 92.2268 75.8356L89.6821 76.1753C87.7588 76.2886 86.2307 75.8643 85.0993 74.9008C84.6451 74.5611 84.3361 74.25 84.1656 73.9677L82.9768 72.5242C78.2826 71.7314 73.8416 70.8541 69.6556 69.8906L53.0232 66.0688C55.117 67.7118 59.8399 69.6929 67.1937 72.0137C77.7726 75.2964 89.032 77.4482 100.967 78.4674C103.398 78.4674 105.377 78.1851 106.907 77.6189L107.841 77.1946V77.1101L109.199 76.3461C109.82 75.7223 110.131 75.129 110.131 74.5627L110.046 73.9677L109.199 73.8832L104.871 74.6473C102.495 74.9296 101.053 75.0715 100.543 75.0715C98.7329 75.0715 96.8079 74.8738 94.7715 74.4765ZM86.8808 66.919L83.2318 68.3626L86.1175 72.3535L86.202 72.5242L86.5414 72.864C87.2185 73.3727 88.2097 73.628 89.5116 73.628C90.3609 73.628 91.0668 73.5435 91.6324 73.3744C92.1424 73.2612 92.5375 73.0634 92.8212 72.7794L93.0745 72.5259L92.7351 72.1861C92.1137 71.3933 90.5281 69.9498 87.9834 67.8538L86.8808 66.919ZM121.161 76.9394C120.539 75.8643 119.097 74.5611 116.833 73.033C114.626 71.674 112.42 70.5685 110.215 69.7216C108.856 69.2686 107.611 68.7581 106.48 68.1935L103.68 70.9099L105.038 72.0137L108.858 71.3342H109.028C110.273 71.3342 111.149 71.5607 111.659 72.0137C112.338 72.5225 112.677 73.3727 112.677 74.5611C112.677 75.5229 112.424 76.3731 111.916 77.1084C113.613 78.2409 115.507 78.8072 117.599 78.8072L119.975 78.552C120.936 78.2697 121.417 78.0144 121.417 77.7879L121.161 76.9394ZM45.8129 52.3128L43.2666 53.4165L43.6904 57.0677C44.0298 58.3709 45.0193 59.0217 46.6606 59.0217C47.282 59.0217 47.9895 58.6262 48.7831 57.8317C49.4029 57.1522 49.7423 56.4727 49.8014 55.7932V55.5396C49.8014 55.0866 49.6038 54.6623 49.207 54.2651L48.6109 53.6701C47.8764 53.0464 47.1131 52.6796 46.3212 52.5663L45.8129 52.3128Z" fill="#1D1D1D"/>
</svg>
